<?xml version="1.0" encoding="utf-8"?>
<svg viewBox="183.666 66 272.96 99.053" xmlns="http://www.w3.org/2000/svg">
  <path d="M 340.61 163.5 L 350.678 105.687 L 311.468 147.056 L 325.422 66.5 L 335.879 66.5 L 327.219 116.897 L 366.309 75.399 L 356.296 133.406 L 385.936 101.839 L 382.959 118.617 L 340.61 163.5 Z" fill="#fff" style="" transform="matrix(1, 0, 0, 1, 0, -7.105427357601002e-15)"/>
  <path d="M 349.901 107.233 L 310.693 148.6 L 325.001 66 L 336.472 66 L 327.993 115.346 L 367.084 73.847 L 357.072 131.849 L 386.722 100.272 L 383.425 118.851 L 339.832 165.053 L 349.901 107.233 Z M 382.493 118.383 L 385.15 103.406 L 355.52 134.963 L 365.534 76.951 L 326.445 118.448 L 335.286 67 L 325.843 67 L 312.243 145.511 L 351.455 104.141 L 341.388 161.947 L 382.493 118.383 Z" style="fill: none;" transform="matrix(1, 0, 0, 1, 0, -7.105427357601002e-15)"/>
  <path d="M 368.735 74.378 L 359.804 126.237 L 386.413 97.852 L 389.076 81.784 L 375.381 96.895 L 380.653 66.715 L 358.668 66.725 L 345.904 80.398 L 348.664 66.672 L 338.174 66.672 L 330.728 109.707 L 363.949 74.41 L 368.734 74.378 L 368.735 74.378 Z M 394.77 66.683 L 385.98 118.391 L 412.015 118.391 L 421.952 108.062 L 398.526 108.062 L 400.345 97.261 L 415.663 97.261 L 425.579 86.76 L 408.085 86.76 L 400.973 94.068 L 403.971 77.098 L 418.51 77.098 L 429.205 66.683 L 394.77 66.683 Z M 430.407 66.672 L 421.606 118.262 L 445.974 118.262 L 455.468 108.181 L 434.142 108.181 L 441.265 66.672 L 430.407 66.672 Z" fill="#fff" style="" transform="matrix(1, 0, 0, 1, 0, -7.105427357601002e-15)"/>
  <path d="M 364.166 74.909 L 329.952 111.261 L 337.753 66.172 L 349.275 66.172 L 346.742 78.768 L 358.451 66.225 L 381.248 66.215 L 376.171 95.279 L 389.847 80.188 L 386.881 98.083 L 359.028 127.796 L 368.141 74.882 L 364.166 74.909 Z M 368.735 73.878 L 369.328 73.878 L 360.58 124.678 L 385.945 97.621 L 388.305 83.38 L 374.591 98.511 L 380.058 67.215 L 358.885 67.225 L 345.066 82.028 L 348.053 67.172 L 338.595 67.172 L 331.504 108.153 L 363.732 73.911 L 368.731 73.878 L 368.735 73.878 Z M 418.713 77.598 L 404.39 77.598 L 401.748 92.555 L 407.874 86.26 L 426.558 86.26 L 429.893 66.711 L 418.713 77.598 Z M 415.879 97.761 L 400.768 97.761 L 399.117 107.562 L 422.924 107.562 L 426.518 86.494 L 415.879 97.761 Z M 412.228 118.891 L 385.388 118.891 L 394.348 66.183 L 429.983 66.183 L 429.985 66.172 L 441.858 66.172 L 434.735 107.681 L 456.626 107.681 L 446.19 118.762 L 421.013 118.762 L 422.88 107.818 L 412.228 118.891 Z M 395.192 67.183 L 386.572 117.891 L 411.802 117.891 L 420.777 108.562 L 397.935 108.562 L 399.922 96.761 L 415.447 96.761 L 424.419 87.26 L 408.296 87.26 L 400.198 95.581 L 403.552 76.598 L 418.307 76.598 L 427.975 67.183 L 395.192 67.183 Z M 430.829 67.172 L 422.199 117.762 L 445.758 117.762 L 454.31 108.681 L 433.549 108.681 L 440.672 67.172 L 430.829 67.172 Z" style="fill: none;" transform="matrix(1, 0, 0, 1, 0, -7.105427357601002e-15)"/>
  <path d="M 187.076 92.167 C 187.076 93.12 186.188 88.739 186.543 89.528 C 186.898 90.317 187.076 91.196 187.076 92.167 Z M 201.996 104.725 C 202.239 105.141 202.451 105.579 202.633 106.038 C 202.815 106.497 202.993 106.961 203.166 107.429 C 203.339 106.944 203.521 106.48 203.712 106.038 C 203.903 105.596 204.119 105.15 204.362 104.699 L 216.972 81.793 C 217.197 81.394 217.431 81.152 217.674 81.065 C 217.917 80.978 218.263 80.935 218.714 80.935 L 222.432 80.935 L 222.432 118.193 L 218.012 118.193 L 218.012 90.815 C 218.012 90.451 218.021 90.061 218.038 89.645 C 218.055 89.229 218.081 88.804 218.116 88.371 L 205.35 111.667 C 204.917 112.447 204.31 112.837 203.53 112.837 L 202.802 112.837 C 202.022 112.837 201.415 112.447 200.982 111.667 C 200.982 111.667 188.086 90.451 188.086 90.815 L 188.086 118.193 L 183.666 118.193 L 183.666 80.935 L 187.384 80.935 C 187.835 80.935 188.181 80.978 188.424 81.065 C 188.667 81.152 188.901 81.394 189.126 81.793 L 201.996 104.725 Z M 239.594 91.439 C 241.171 91.439 242.627 91.703 243.962 92.232 C 245.297 92.761 246.449 93.523 247.42 94.52 C 248.391 95.517 249.149 96.747 249.695 98.212 C 250.241 99.677 250.514 101.345 250.514 103.217 C 250.514 103.945 250.436 104.43 250.28 104.673 C 250.124 104.916 249.829 105.037 249.396 105.037 L 231.872 105.037 C 231.907 106.701 232.132 108.148 232.548 109.379 C 232.964 110.61 233.536 111.637 234.264 112.46 C 234.992 113.283 235.859 113.899 236.864 114.306 C 237.869 114.713 238.996 114.917 240.244 114.917 C 241.405 114.917 242.406 114.783 243.247 114.514 C 244.088 114.245 244.811 113.955 245.418 113.643 C 246.025 113.331 246.532 113.041 246.939 112.772 C 247.346 112.503 247.697 112.369 247.992 112.369 C 248.373 112.369 248.668 112.516 248.876 112.811 L 250.176 114.501 C 249.604 115.194 248.919 115.797 248.122 116.308 C 247.325 116.819 246.471 117.24 245.561 117.569 C 244.651 117.898 243.711 118.145 242.74 118.31 C 241.769 118.475 240.807 118.557 239.854 118.557 C 238.034 118.557 236.357 118.249 234.823 117.634 C 233.289 117.019 231.963 116.117 230.845 114.93 C 229.727 113.743 228.856 112.274 228.232 110.523 C 227.608 108.772 227.296 106.762 227.296 104.491 C 227.296 102.654 227.578 100.938 228.141 99.343 C 228.704 97.748 229.515 96.366 230.572 95.196 C 231.629 94.026 232.921 93.107 234.446 92.44 C 235.971 91.773 237.687 91.439 239.594 91.439 Z M 239.698 94.845 C 237.462 94.845 235.703 95.491 234.42 96.782 C 233.137 98.073 232.34 99.863 232.028 102.151 L 246.354 102.151 C 246.354 101.076 246.207 100.093 245.912 99.2 C 245.617 98.307 245.184 97.536 244.612 96.886 C 244.04 96.236 243.342 95.733 242.519 95.378 C 241.696 95.023 240.755 94.845 239.698 94.845 Z M 260.227 118.609 C 258.147 118.609 256.548 118.028 255.43 116.867 C 254.312 115.706 253.753 114.033 253.753 111.849 L 253.753 95.729 L 250.581 95.729 C 250.304 95.729 250.07 95.647 249.879 95.482 C 249.688 95.317 249.593 95.062 249.593 94.715 L 249.593 92.869 L 253.909 92.323 L 254.975 84.185 C 255.01 83.925 255.122 83.713 255.313 83.548 C 255.504 83.383 255.746 83.301 256.041 83.301 L 258.381 83.301 L 258.381 92.375 L 265.921 92.375 L 265.921 95.729 L 258.381 95.729 L 258.381 111.537 C 258.381 112.646 258.65 113.47 259.187 114.007 C 259.724 114.544 260.418 114.813 261.267 114.813 C 261.752 114.813 262.173 114.748 262.528 114.618 C 262.883 114.488 263.191 114.345 263.451 114.189 C 263.711 114.033 263.932 113.89 264.114 113.76 C 264.296 113.63 264.456 113.565 264.595 113.565 C 264.838 113.565 265.054 113.712 265.245 114.007 L 266.597 116.217 C 265.8 116.962 264.838 117.547 263.711 117.972 C 262.584 118.397 261.423 118.609 260.227 118.609 Z M 277.116 91.439 C 278.693 91.439 280.149 91.703 281.484 92.232 C 282.819 92.761 283.971 93.523 284.942 94.52 C 285.913 95.517 286.671 96.747 287.217 98.212 C 287.763 99.677 288.036 101.345 288.036 103.217 C 288.036 103.945 287.958 104.43 287.802 104.673 C 287.646 104.916 287.351 105.037 286.918 105.037 L 269.394 105.037 C 269.429 106.701 269.654 108.148 270.07 109.379 C 270.486 110.61 271.058 111.637 271.786 112.46 C 272.514 113.283 273.381 113.899 274.386 114.306 C 275.391 114.713 276.518 114.917 277.766 114.917 C 278.927 114.917 279.928 114.783 280.769 114.514 C 281.61 114.245 282.333 113.955 282.94 113.643 C 283.547 113.331 284.054 113.041 284.461 112.772 C 284.868 112.503 285.219 112.369 285.514 112.369 C 285.895 112.369 286.19 112.516 286.398 112.811 L 287.698 114.501 C 287.126 115.194 286.441 115.797 285.644 116.308 C 284.847 116.819 283.993 117.24 283.083 117.569 C 282.173 117.898 281.233 118.145 280.262 118.31 C 279.291 118.475 278.329 118.557 277.376 118.557 C 275.556 118.557 273.879 118.249 272.345 117.634 C 270.811 117.019 269.485 116.117 268.367 114.93 C 267.249 113.743 266.378 112.274 265.754 110.523 C 265.13 108.772 264.818 106.762 264.818 104.491 C 264.818 102.654 265.1 100.938 265.663 99.343 C 266.226 97.748 267.037 96.366 268.094 95.196 C 269.151 94.026 270.443 93.107 271.968 92.44 C 273.493 91.773 275.209 91.439 277.116 91.439 Z M 277.22 94.845 C 274.984 94.845 273.225 95.491 271.942 96.782 C 270.659 98.073 269.862 99.863 269.55 102.151 L 283.876 102.151 C 283.876 101.076 283.729 100.093 283.434 99.2 C 283.139 98.307 282.706 97.536 282.134 96.886 C 281.562 96.236 280.864 95.733 280.041 95.378 C 279.218 95.023 278.277 94.845 277.22 94.845 Z M 289.768 118.193 L 289.768 91.855 L 292.42 91.855 C 292.923 91.855 293.269 91.95 293.46 92.141 C 293.651 92.332 293.781 92.661 293.85 93.129 L 294.162 97.237 C 295.063 95.4 296.177 93.965 297.503 92.934 C 298.829 91.903 300.385 91.387 302.17 91.387 C 302.898 91.387 303.557 91.469 304.146 91.634 C 304.735 91.799 305.281 92.028 305.784 92.323 L 305.186 95.781 C 305.065 96.214 304.796 96.431 304.38 96.431 C 304.137 96.431 303.765 96.349 303.262 96.184 C 302.759 96.019 302.057 95.937 301.156 95.937 C 299.544 95.937 298.196 96.405 297.113 97.341 C 296.03 98.277 295.124 99.638 294.396 101.423 L 294.396 118.193 L 289.768 118.193 Z" style="fill: rgb(255, 255, 255); stroke-width: 0px;" transform="matrix(1, 0, 0, 1, 0, -7.105427357601002e-15)"/>
</svg>
